# Blender 4.0.1
# www.blender.org
mtllib golf-flag.mtl
o flag
v 0.000000 -0.200695 -0.020000
v 0.000000 2.000000 -0.020000
v 0.003902 -0.200695 -0.019616
v 0.003902 2.000000 -0.019616
v 0.007654 -0.200695 -0.018478
v 0.007654 2.000000 -0.018478
v 0.011111 -0.200695 -0.016629
v 0.011111 2.000000 -0.016629
v 0.014142 -0.200695 -0.014142
v 0.014142 2.000000 -0.014142
v 0.016629 -0.200695 -0.011111
v 0.016629 2.000000 -0.011111
v 0.018478 -0.200695 -0.007654
v 0.018478 2.000000 -0.007654
v 0.019616 -0.200695 -0.003902
v 0.019616 2.000000 -0.003902
v 0.020000 -0.200695 -0.000000
v 0.020000 2.000000 -0.000000
v 0.019616 -0.200695 0.003902
v 0.019616 2.000000 0.003902
v 0.018478 -0.200695 0.007654
v 0.018478 2.000000 0.007654
v 0.016629 -0.200695 0.011111
v 0.016629 2.000000 0.011111
v 0.014142 -0.200695 0.014142
v 0.014142 2.000000 0.014142
v 0.011111 -0.200695 0.016629
v 0.011111 2.000000 0.016629
v 0.007654 -0.200695 0.018478
v 0.007654 2.000000 0.018478
v 0.003902 -0.200695 0.019616
v 0.003902 2.000000 0.019616
v -0.000000 -0.200695 0.020000
v -0.000000 2.000000 0.020000
v -0.003902 -0.200695 0.019616
v -0.003902 2.000000 0.019616
v -0.007654 -0.200695 0.018478
v -0.007654 2.000000 0.018478
v -0.011111 -0.200695 0.016629
v -0.011111 2.000000 0.016629
v -0.014142 -0.200695 0.014142
v -0.014142 2.000000 0.014142
v -0.016629 -0.200695 0.011111
v -0.016629 2.000000 0.011111
v -0.018478 -0.200695 0.007654
v -0.018478 2.000000 0.007654
v -0.019616 -0.200695 0.003902
v -0.019616 2.000000 0.003902
v -0.020000 -0.200695 -0.000000
v -0.020000 2.000000 -0.000000
v -0.019616 -0.200695 -0.003902
v -0.019616 2.000000 -0.003902
v -0.018478 -0.200695 -0.007654
v -0.018478 2.000000 -0.007654
v -0.016629 -0.200695 -0.011111
v -0.016629 2.000000 -0.011111
v -0.014142 -0.200695 -0.014142
v -0.014142 2.000000 -0.014142
v -0.011111 -0.200695 -0.016629
v -0.011111 2.000000 -0.016629
v -0.007654 -0.200695 -0.018478
v -0.007654 2.000000 -0.018478
v -0.003902 -0.200695 -0.019616
v -0.003902 2.000000 -0.019616
v -0.042032 1.655625 0.027486
v -0.042032 1.948491 0.027486
v -0.042032 1.655625 -0.027519
v -0.042032 1.948491 -0.027519
v 0.512973 1.752607 0.009271
v 0.512973 1.851509 0.009271
v 0.512973 1.752607 -0.009304
v 0.512973 1.851509 -0.009304
v 0.000000 0.349479 -0.020000
v 0.000000 0.899653 -0.020000
v 0.000000 1.449826 -0.020000
v 0.003902 1.449826 -0.019616
v 0.003902 0.899653 -0.019616
v 0.003902 0.349479 -0.019616
v 0.007654 1.449826 -0.018478
v 0.007654 0.899653 -0.018478
v 0.007654 0.349479 -0.018478
v 0.011111 1.449826 -0.016629
v 0.011111 0.899653 -0.016629
v 0.011111 0.349479 -0.016629
v 0.014142 1.449826 -0.014142
v 0.014142 0.899653 -0.014142
v 0.014142 0.349479 -0.014142
v 0.016629 1.449826 -0.011111
v 0.016629 0.899653 -0.011111
v 0.016629 0.349479 -0.011111
v 0.018478 1.449826 -0.007654
v 0.018478 0.899653 -0.007654
v 0.018478 0.349479 -0.007654
v 0.019616 1.449826 -0.003902
v 0.019616 0.899653 -0.003902
v 0.019616 0.349479 -0.003902
v 0.020000 1.449826 -0.000000
v 0.020000 0.899653 -0.000000
v 0.020000 0.349479 -0.000000
v 0.019616 1.449826 0.003902
v 0.019616 0.899653 0.003902
v 0.019616 0.349479 0.003902
v 0.018478 1.449826 0.007654
v 0.018478 0.899653 0.007654
v 0.018478 0.349479 0.007654
v 0.016629 1.449826 0.011111
v 0.016629 0.899653 0.011111
v 0.016629 0.349479 0.011111
v 0.014142 1.449826 0.014142
v 0.014142 0.899653 0.014142
v 0.014142 0.349479 0.014142
v 0.011111 1.449826 0.016629
v 0.011111 0.899653 0.016629
v 0.011111 0.349479 0.016629
v 0.007654 1.449826 0.018478
v 0.007654 0.899653 0.018478
v 0.007654 0.349479 0.018478
v 0.003902 1.449826 0.019616
v 0.003902 0.899653 0.019616
v 0.003902 0.349479 0.019616
v -0.000000 1.449826 0.020000
v -0.000000 0.899653 0.020000
v -0.000000 0.349479 0.020000
v -0.003902 1.449826 0.019616
v -0.003902 0.899653 0.019616
v -0.003902 0.349479 0.019616
v -0.007654 1.449826 0.018478
v -0.007654 0.899653 0.018478
v -0.007654 0.349479 0.018478
v -0.011111 1.449826 0.016629
v -0.011111 0.899653 0.016629
v -0.011111 0.349479 0.016629
v -0.014142 1.449826 0.014142
v -0.014142 0.899653 0.014142
v -0.014142 0.349479 0.014142
v -0.016629 1.449826 0.011111
v -0.016629 0.899653 0.011111
v -0.016629 0.349479 0.011111
v -0.018478 1.449826 0.007654
v -0.018478 0.899653 0.007654
v -0.018478 0.349479 0.007654
v -0.019616 1.449826 0.003902
v -0.019616 0.899653 0.003902
v -0.019616 0.349479 0.003902
v -0.020000 1.449826 -0.000000
v -0.020000 0.899653 -0.000000
v -0.020000 0.349479 -0.000000
v -0.019616 1.449826 -0.003902
v -0.019616 0.899653 -0.003902
v -0.019616 0.349479 -0.003902
v -0.018478 1.449826 -0.007654
v -0.018478 0.899653 -0.007654
v -0.018478 0.349479 -0.007654
v -0.016629 1.449826 -0.011111
v -0.016629 0.899653 -0.011111
v -0.016629 0.349479 -0.011111
v -0.014142 1.449826 -0.014142
v -0.014142 0.899653 -0.014142
v -0.014142 0.349479 -0.014142
v -0.011111 1.449826 -0.016629
v -0.011111 0.899653 -0.016629
v -0.011111 0.349479 -0.016629
v -0.007654 1.449826 -0.018478
v -0.007654 0.899653 -0.018478
v -0.007654 0.349479 -0.018478
v -0.003902 1.449826 -0.019616
v -0.003902 0.899653 -0.019616
v -0.003902 0.349479 -0.019616
vn 0.0980 -0.0000 -0.9952
vn 0.2903 -0.0000 -0.9569
vn 0.4714 -0.0000 -0.8819
vn 0.6344 -0.0000 -0.7730
vn 0.7730 -0.0000 -0.6344
vn 0.8819 -0.0000 -0.4714
vn 0.9569 -0.0000 -0.2903
vn 0.9952 -0.0000 -0.0980
vn 0.9952 -0.0000 0.0980
vn 0.9569 -0.0000 0.2903
vn 0.8819 -0.0000 0.4714
vn 0.7730 -0.0000 0.6344
vn 0.6344 -0.0000 0.7730
vn 0.4714 -0.0000 0.8819
vn 0.2903 -0.0000 0.9569
vn 0.0980 -0.0000 0.9952
vn -0.0980 -0.0000 0.9952
vn -0.2903 -0.0000 0.9569
vn -0.4714 -0.0000 0.8819
vn -0.6344 -0.0000 0.7730
vn -0.7730 -0.0000 0.6344
vn -0.8819 -0.0000 0.4714
vn -0.9569 -0.0000 0.2903
vn -0.9952 -0.0000 0.0980
vn -0.9952 -0.0000 -0.0980
vn -0.9569 -0.0000 -0.2903
vn -0.8819 -0.0000 -0.4714
vn -0.7730 -0.0000 -0.6344
vn -0.6344 -0.0000 -0.7730
vn -0.4714 -0.0000 -0.8819
vn -0.0000 1.0000 -0.0000
vn -0.0980 -0.0000 -0.9952
vn -0.2903 -0.0000 -0.9569
vn -0.0000 -1.0000 -0.0000
vn -1.0000 -0.0000 -0.0000
vn 0.0328 -0.0000 -0.9995
vn 1.0000 -0.0000 -0.0000
vn 0.0328 -0.0000 0.9995
vn 0.1721 -0.9851 -0.0000
vn 0.1721 0.9851 -0.0000
vt 0.677720 0.528882
vt 0.677720 0.975639
vt 0.674753 0.975639
vt 0.674753 0.528882
vt 0.671900 0.975639
vt 0.671900 0.528882
vt 0.669270 0.975639
vt 0.669270 0.528882
vt 0.666964 0.975639
vt 0.666964 0.528882
vt 0.822675 0.024361
vt 0.822675 0.471118
vt 0.820371 0.471118
vt 0.820371 0.024361
vt 0.817743 0.471118
vt 0.817743 0.024361
vt 0.814891 0.471118
vt 0.814891 0.024361
vt 0.811925 0.471118
vt 0.811925 0.024361
vt 0.808959 0.471118
vt 0.808959 0.024361
vt 0.806107 0.471118
vt 0.806107 0.024361
vt 0.803479 0.471118
vt 0.803479 0.024361
vt 0.801175 0.471118
vt 0.801175 0.024361
vt 0.089909 0.970541
vt 0.089909 0.523783
vt 0.092215 0.523783
vt 0.092215 0.970541
vt 0.094846 0.523783
vt 0.094846 0.970541
vt 0.097699 0.523783
vt 0.097699 0.970541
vt 0.100665 0.523783
vt 0.100665 0.970541
vt 0.103630 0.523783
vt 0.103630 0.970541
vt 0.106481 0.523783
vt 0.106481 0.970541
vt 0.109107 0.523783
vt 0.109107 0.970541
vt 0.111408 0.523783
vt 0.111408 0.970541
vt 0.178514 0.523783
vt 0.178514 0.970541
vt 0.176210 0.970541
vt 0.176210 0.523783
vt 0.173582 0.970541
vt 0.173582 0.523783
vt 0.170730 0.970541
vt 0.170730 0.523783
vt 0.167764 0.970541
vt 0.167764 0.523783
vt 0.164799 0.970541
vt 0.164799 0.523783
vt 0.161947 0.970541
vt 0.161947 0.523783
vt 0.159319 0.970541
vt 0.159319 0.523783
vt 0.157015 0.970541
vt 0.157015 0.523783
vt 0.688463 0.528882
vt 0.688463 0.975639
vt 0.686162 0.975639
vt 0.686162 0.528882
vt 0.683536 0.975639
vt 0.683536 0.528882
vt 0.948975 0.806380
vt 0.951945 0.806378
vt 0.954857 0.806996
vt 0.957600 0.808213
vt 0.960068 0.809979
vt 0.962168 0.812229
vt 0.963817 0.814875
vt 0.964954 0.817815
vt 0.965533 0.820937
vt 0.965533 0.824121
vt 0.964954 0.827244
vt 0.963817 0.830186
vt 0.962168 0.832834
vt 0.960068 0.835087
vt 0.957600 0.836857
vt 0.954857 0.838078
vt 0.951944 0.838701
vt 0.948975 0.838704
vt 0.946063 0.838085
vt 0.943320 0.836869
vt 0.940851 0.835102
vt 0.938752 0.832852
vt 0.937102 0.830206
vt 0.935966 0.827266
vt 0.935387 0.824144
vt 0.935387 0.820960
vt 0.935966 0.817838
vt 0.937102 0.814895
vt 0.938752 0.812247
vt 0.940852 0.809994
vt 0.943320 0.808224
vt 0.946063 0.807003
vt 0.680685 0.528882
vt 0.680685 0.975639
vt 0.951944 0.919751
vt 0.948975 0.919749
vt 0.946063 0.919126
vt 0.943320 0.917905
vt 0.940852 0.916134
vt 0.938752 0.913882
vt 0.937102 0.911233
vt 0.935966 0.908291
vt 0.935387 0.905168
vt 0.935387 0.901985
vt 0.935966 0.898863
vt 0.937102 0.895922
vt 0.938752 0.893277
vt 0.940851 0.891027
vt 0.943320 0.889260
vt 0.946063 0.888044
vt 0.948975 0.887425
vt 0.951944 0.887428
vt 0.954857 0.888051
vt 0.957600 0.889271
vt 0.960068 0.891042
vt 0.962168 0.893295
vt 0.963817 0.895943
vt 0.964954 0.898885
vt 0.965533 0.902008
vt 0.965533 0.905192
vt 0.964954 0.908314
vt 0.963817 0.911254
vt 0.962168 0.913900
vt 0.960068 0.916149
vt 0.957600 0.917916
vt 0.954857 0.919132
vt 0.935387 0.519840
vt 0.977197 0.519840
vt 0.977197 0.757656
vt 0.935387 0.757656
vt 0.291020 0.475061
vt 0.364737 0.024361
vt 0.439913 0.024361
vt 0.513630 0.475061
vt 0.379419 0.604095
vt 0.365300 0.604095
vt 0.365300 0.523783
vt 0.379419 0.523783
vt 0.171697 0.024361
vt 0.245414 0.475061
vt 0.022803 0.475061
vt 0.096520 0.024361
vt 0.559237 0.024361
vt 0.601047 0.024361
vt 0.587202 0.480160
vt 0.573082 0.480160
vt 0.674618 0.480160
vt 0.660499 0.480160
vt 0.646653 0.024361
vt 0.688463 0.024361
vt 0.584475 0.975639
vt 0.584475 0.528882
vt 0.587326 0.528882
vt 0.587326 0.975639
vt 0.738997 0.471118
vt 0.738997 0.024361
vt 0.741848 0.024361
vt 0.741848 0.471118
vt 0.951959 0.024361
vt 0.951959 0.471118
vt 0.949108 0.471118
vt 0.949108 0.024361
vt 0.590291 0.528882
vt 0.590291 0.975639
vt 0.744813 0.024361
vt 0.744813 0.471118
vt 0.946143 0.471118
vt 0.946143 0.024361
vt 0.581849 0.975639
vt 0.581849 0.528882
vt 0.736371 0.471118
vt 0.736371 0.024361
vt 0.954585 0.024361
vt 0.954585 0.471118
vt 0.579548 0.975639
vt 0.579548 0.528882
vt 0.734070 0.471118
vt 0.734070 0.024361
vt 0.956886 0.024361
vt 0.956886 0.471118
vt 0.427329 0.523783
vt 0.427329 0.970541
vt 0.425026 0.970541
vt 0.425026 0.523783
vt 0.887477 0.471118
vt 0.887477 0.024361
vt 0.889780 0.024361
vt 0.889780 0.471118
vt 0.494435 0.523783
vt 0.494435 0.970541
vt 0.492131 0.970541
vt 0.492131 0.523783
vt 0.429957 0.523783
vt 0.429957 0.970541
vt 0.884848 0.471118
vt 0.884848 0.024361
vt 0.497063 0.523783
vt 0.497063 0.970541
vt 0.432809 0.523783
vt 0.432809 0.970541
vt 0.881997 0.471118
vt 0.881997 0.024361
vt 0.499915 0.523783
vt 0.499915 0.970541
vt 0.435775 0.523783
vt 0.435775 0.970541
vt 0.879031 0.471118
vt 0.879031 0.024361
vt 0.502881 0.523783
vt 0.502881 0.970541
vt 0.438741 0.523783
vt 0.438741 0.970541
vt 0.876065 0.471118
vt 0.876065 0.024361
vt 0.505847 0.523783
vt 0.505847 0.970541
vt 0.441593 0.523783
vt 0.441593 0.970541
vt 0.873213 0.471118
vt 0.873213 0.024361
vt 0.508698 0.523783
vt 0.508699 0.970541
vt 0.444221 0.523783
vt 0.444221 0.970541
vt 0.870585 0.471118
vt 0.870585 0.024361
vt 0.511327 0.523783
vt 0.511327 0.970541
vt 0.446525 0.523783
vt 0.446525 0.970541
vt 0.868281 0.471118
vt 0.868281 0.024361
vt 0.513630 0.523783
vt 0.513630 0.970541
vt 0.243319 0.970541
vt 0.243319 0.523783
vt 0.245620 0.523783
vt 0.245620 0.970541
vt 0.310425 0.970541
vt 0.310424 0.523783
vt 0.312725 0.523783
vt 0.312726 0.970541
vt 0.042001 0.970541
vt 0.042001 0.523783
vt 0.044302 0.523783
vt 0.044302 0.970541
vt 0.240692 0.970541
vt 0.240692 0.523783
vt 0.307798 0.970541
vt 0.307798 0.523783
vt 0.039375 0.970541
vt 0.039375 0.523783
vt 0.237842 0.970541
vt 0.237842 0.523783
vt 0.304948 0.970541
vt 0.304947 0.523783
vt 0.036524 0.970541
vt 0.036524 0.523783
vt 0.234876 0.970541
vt 0.234876 0.523783
vt 0.301982 0.970541
vt 0.301982 0.523783
vt 0.033559 0.970541
vt 0.033559 0.523783
vt 0.231910 0.970541
vt 0.231910 0.523783
vt 0.299016 0.970541
vt 0.299016 0.523783
vt 0.030593 0.970541
vt 0.030593 0.523783
vt 0.229057 0.970541
vt 0.229057 0.523783
vt 0.296163 0.970541
vt 0.296163 0.523783
vt 0.027740 0.970541
vt 0.027740 0.523783
vt 0.226427 0.970541
vt 0.226427 0.523783
vt 0.293533 0.970541
vt 0.293533 0.523783
vt 0.025110 0.970541
vt 0.025110 0.523783
vt 0.224121 0.970541
vt 0.224121 0.523783
vt 0.291226 0.970541
vt 0.291226 0.523783
vt 0.022803 0.970541
vt 0.022803 0.523783
vt 0.803479 0.519840
vt 0.803479 0.966598
vt 0.801175 0.966598
vt 0.801175 0.519840
vt 0.870585 0.519840
vt 0.870585 0.966598
vt 0.868281 0.966598
vt 0.868281 0.519840
vt 0.736373 0.519840
vt 0.736373 0.966597
vt 0.734070 0.966597
vt 0.734070 0.519840
vt 0.806107 0.519840
vt 0.806107 0.966598
vt 0.873213 0.519840
vt 0.873213 0.966598
vt 0.739002 0.519840
vt 0.739002 0.966597
vt 0.808959 0.519840
vt 0.808959 0.966598
vt 0.876065 0.519840
vt 0.876065 0.966598
vt 0.741853 0.519840
vt 0.741853 0.966597
vt 0.811925 0.519840
vt 0.811925 0.966598
vt 0.879031 0.519840
vt 0.879031 0.966598
vt 0.744819 0.519840
vt 0.744819 0.966597
vt 0.814891 0.519840
vt 0.814891 0.966598
vt 0.881997 0.519840
vt 0.881997 0.966598
vt 0.747785 0.519840
vt 0.747785 0.966597
vt 0.817743 0.519840
vt 0.817743 0.966598
vt 0.884848 0.519840
vt 0.884848 0.966598
vt 0.750637 0.519840
vt 0.750637 0.966597
vt 0.820371 0.519840
vt 0.820371 0.966598
vt 0.887477 0.519840
vt 0.887477 0.966598
vt 0.753265 0.519840
vt 0.753265 0.966597
vt 0.822675 0.519840
vt 0.822675 0.966598
vt 0.889780 0.519840
vt 0.889780 0.966598
vt 0.755569 0.519840
vt 0.755569 0.966597
vt 0.598740 0.975639
vt 0.598740 0.528882
vt 0.601047 0.528882
vt 0.601047 0.975639
vt 0.753263 0.471118
vt 0.753262 0.024361
vt 0.755569 0.024361
vt 0.755569 0.471118
vt 0.937693 0.024361
vt 0.937693 0.471118
vt 0.935387 0.471118
vt 0.935387 0.024361
vt 0.596110 0.975639
vt 0.596110 0.528882
vt 0.750632 0.471118
vt 0.750632 0.024361
vt 0.940323 0.024361
vt 0.940323 0.471118
vt 0.593257 0.975639
vt 0.593257 0.528882
vt 0.747779 0.471118
vt 0.747779 0.024361
vt 0.943177 0.024361
vt 0.943177 0.471118
s 0
usemtl Material
f 75/1/1 2/2/1 4/3/1 76/4/1
f 76/4/2 4/3/2 6/5/2 79/6/2
f 79/6/3 6/5/3 8/7/3 82/8/3
f 82/8/4 8/7/4 10/9/4 85/10/4
f 85/11/5 10/12/5 12/13/5 88/14/5
f 88/14/6 12/13/6 14/15/6 91/16/6
f 91/16/7 14/15/7 16/17/7 94/18/7
f 94/18/8 16/17/8 18/19/8 97/20/8
f 97/20/9 18/19/9 20/21/9 100/22/9
f 100/22/10 20/21/10 22/23/10 103/24/10
f 103/24/11 22/23/11 24/25/11 106/26/11
f 106/26/12 24/25/12 26/27/12 109/28/12
f 109/29/13 26/30/13 28/31/13 112/32/13
f 112/32/14 28/31/14 30/33/14 115/34/14
f 115/34/15 30/33/15 32/35/15 118/36/15
f 118/36/16 32/35/16 34/37/16 121/38/16
f 121/38/17 34/37/17 36/39/17 124/40/17
f 124/40/18 36/39/18 38/41/18 127/42/18
f 127/42/19 38/41/19 40/43/19 130/44/19
f 130/44/20 40/43/20 42/45/20 133/46/20
f 133/47/21 42/48/21 44/49/21 136/50/21
f 136/50/22 44/49/22 46/51/22 139/52/22
f 139/52/23 46/51/23 48/53/23 142/54/23
f 142/54/24 48/53/24 50/55/24 145/56/24
f 145/56/25 50/55/25 52/57/25 148/58/25
f 148/58/26 52/57/26 54/59/26 151/60/26
f 151/60/27 54/59/27 56/61/27 154/62/27
f 154/62/28 56/61/28 58/63/28 157/64/28
f 157/65/29 58/66/29 60/67/29 160/68/29
f 160/68/30 60/67/30 62/69/30 163/70/30
f 4/71/31 2/72/31 64/73/31 62/74/31 60/75/31 58/76/31 56/77/31 54/78/31 52/79/31 50/80/31 48/81/31 46/82/31 44/83/31 42/84/31 40/85/31 38/86/31 36/87/31 34/88/31 32/89/31 30/90/31 28/91/31 26/92/31 24/93/31 22/94/31 20/95/31 18/96/31 16/97/31 14/98/31 12/99/31 10/100/31 8/101/31 6/102/31
f 166/103/32 64/104/32 2/2/32 75/1/32
f 163/70/33 62/69/33 64/104/33 166/103/33
f 1/105/34 3/106/34 5/107/34 7/108/34 9/109/34 11/110/34 13/111/34 15/112/34 17/113/34 19/114/34 21/115/34 23/116/34 25/117/34 27/118/34 29/119/34 31/120/34 33/121/34 35/122/34 37/123/34 39/124/34 41/125/34 43/126/34 45/127/34 47/128/34 49/129/34 51/130/34 53/131/34 55/132/34 57/133/34 59/134/34 61/135/34 63/136/34
f 66/137/35 68/138/35 67/139/35 65/140/35
f 68/141/36 72/142/36 71/143/36 67/144/36
f 72/145/37 70/146/37 69/147/37 71/148/37
f 70/149/38 66/150/38 65/151/38 69/152/38
f 65/153/39 67/154/39 71/155/39 69/156/39
f 70/157/40 72/158/40 68/159/40 66/160/40
f 61/161/33 165/162/33 168/163/33 63/164/33
f 165/165/33 164/166/33 167/167/33 168/168/33
f 164/169/33 163/170/33 166/171/33 167/172/33
f 63/164/32 168/163/32 73/173/32 1/174/32
f 168/168/32 167/167/32 74/175/32 73/176/32
f 167/172/32 166/171/32 75/177/32 74/178/32
f 59/179/30 162/180/30 165/162/30 61/161/30
f 162/181/30 161/182/30 164/166/30 165/165/30
f 161/183/30 160/184/30 163/170/30 164/169/30
f 57/185/29 159/186/29 162/180/29 59/179/29
f 159/187/29 158/188/29 161/182/29 162/181/29
f 158/189/29 157/190/29 160/184/29 161/183/29
f 55/191/28 156/192/28 159/193/28 57/194/28
f 156/195/28 155/196/28 158/197/28 159/198/28
f 155/199/28 154/200/28 157/201/28 158/202/28
f 53/203/27 153/204/27 156/192/27 55/191/27
f 153/205/27 152/206/27 155/196/27 156/195/27
f 152/207/27 151/208/27 154/200/27 155/199/27
f 51/209/26 150/210/26 153/204/26 53/203/26
f 150/211/26 149/212/26 152/206/26 153/205/26
f 149/213/26 148/214/26 151/208/26 152/207/26
f 49/215/25 147/216/25 150/210/25 51/209/25
f 147/217/25 146/218/25 149/212/25 150/211/25
f 146/219/25 145/220/25 148/214/25 149/213/25
f 47/221/24 144/222/24 147/216/24 49/215/24
f 144/223/24 143/224/24 146/218/24 147/217/24
f 143/225/24 142/226/24 145/220/24 146/219/24
f 45/227/23 141/228/23 144/222/23 47/221/23
f 141/229/23 140/230/23 143/224/23 144/223/23
f 140/231/23 139/232/23 142/226/23 143/225/23
f 43/233/22 138/234/22 141/228/22 45/227/22
f 138/235/22 137/236/22 140/230/22 141/229/22
f 137/237/22 136/238/22 139/232/22 140/231/22
f 41/239/21 135/240/21 138/234/21 43/233/21
f 135/241/21 134/242/21 137/236/21 138/235/21
f 134/243/21 133/244/21 136/238/21 137/237/21
f 39/245/20 132/246/20 135/247/20 41/248/20
f 132/249/20 131/250/20 134/251/20 135/252/20
f 131/253/20 130/254/20 133/255/20 134/256/20
f 37/257/19 129/258/19 132/246/19 39/245/19
f 129/259/19 128/260/19 131/250/19 132/249/19
f 128/261/19 127/262/19 130/254/19 131/253/19
f 35/263/18 126/264/18 129/258/18 37/257/18
f 126/265/18 125/266/18 128/260/18 129/259/18
f 125/267/18 124/268/18 127/262/18 128/261/18
f 33/269/17 123/270/17 126/264/17 35/263/17
f 123/271/17 122/272/17 125/266/17 126/265/17
f 122/273/17 121/274/17 124/268/17 125/267/17
f 31/275/16 120/276/16 123/270/16 33/269/16
f 120/277/16 119/278/16 122/272/16 123/271/16
f 119/279/16 118/280/16 121/274/16 122/273/16
f 29/281/15 117/282/15 120/276/15 31/275/15
f 117/283/15 116/284/15 119/278/15 120/277/15
f 116/285/15 115/286/15 118/280/15 119/279/15
f 27/287/14 114/288/14 117/282/14 29/281/14
f 114/289/14 113/290/14 116/284/14 117/283/14
f 113/291/14 112/292/14 115/286/14 116/285/14
f 25/293/13 111/294/13 114/288/13 27/287/13
f 111/295/13 110/296/13 113/290/13 114/289/13
f 110/297/13 109/298/13 112/292/13 113/291/13
f 23/299/12 108/300/12 111/301/12 25/302/12
f 108/303/12 107/304/12 110/305/12 111/306/12
f 107/307/12 106/308/12 109/309/12 110/310/12
f 21/311/11 105/312/11 108/300/11 23/299/11
f 105/313/11 104/314/11 107/304/11 108/303/11
f 104/315/11 103/316/11 106/308/11 107/307/11
f 19/317/10 102/318/10 105/312/10 21/311/10
f 102/319/10 101/320/10 104/314/10 105/313/10
f 101/321/10 100/322/10 103/316/10 104/315/10
f 17/323/9 99/324/9 102/318/9 19/317/9
f 99/325/9 98/326/9 101/320/9 102/319/9
f 98/327/9 97/328/9 100/322/9 101/321/9
f 15/329/8 96/330/8 99/324/8 17/323/8
f 96/331/8 95/332/8 98/326/8 99/325/8
f 95/333/8 94/334/8 97/328/8 98/327/8
f 13/335/7 93/336/7 96/330/7 15/329/7
f 93/337/7 92/338/7 95/332/7 96/331/7
f 92/339/7 91/340/7 94/334/7 95/333/7
f 11/341/6 90/342/6 93/336/6 13/335/6
f 90/343/6 89/344/6 92/338/6 93/337/6
f 89/345/6 88/346/6 91/340/6 92/339/6
f 9/347/5 87/348/5 90/342/5 11/341/5
f 87/349/5 86/350/5 89/344/5 90/343/5
f 86/351/5 85/352/5 88/346/5 89/345/5
f 7/353/4 84/354/4 87/355/4 9/356/4
f 84/357/4 83/358/4 86/359/4 87/360/4
f 83/361/4 82/362/4 85/363/4 86/364/4
f 5/365/3 81/366/3 84/354/3 7/353/3
f 81/367/3 80/368/3 83/358/3 84/357/3
f 80/369/3 79/370/3 82/362/3 83/361/3
f 3/371/2 78/372/2 81/366/2 5/365/2
f 78/373/2 77/374/2 80/368/2 81/367/2
f 77/375/2 76/376/2 79/370/2 80/369/2
f 1/174/1 73/173/1 78/372/1 3/371/1
f 73/176/1 74/175/1 77/374/1 78/373/1
f 74/178/1 75/177/1 76/376/1 77/375/1
